<mxfile host="app.diagrams.net" modified="2024-01-31T18:44:30.482Z" agent="Mozilla/5.0 (Windows NT 10.0; Win64; x64; rv:109.0) Gecko/20100101 Firefox/115.0" version="23.1.0" etag="FlEc_udO5bxFJVmetkjM" type="github">
  <diagram name="Page-1" id="i1psZpg8WtZZ6GlQXMet">
    <mxGraphModel>
      <root>
        <mxCell id="0" />
        <mxCell id="1" parent="0" />
      </root>
    </mxGraphModel>
  </diagram>
</mxfile>
